<svg version="1.0" viewBox="0 0 12000 8490"><path d="M0 4245V0h12000v8490H0V4245z"/><path d="M2958 6769c-1013-78-1862-828-2063-1821-82-410-49-866 91-1247 258-701 855-1243 1569-1426 229-59 323-70 585-69 194 0 257 4 360 22 488 84 901 295 1241 632 374 371 595 821 665 1350 23 175 15 495-16 670-61 348-202 677-410 962-97 133-346 384-479 482-357 264-756 411-1211 446-149 11-176 11-332-1zm494-154c565-88 1061-384 1404-837 280-372 426-809 427-1283 1-484-146-926-434-1307-78-103-260-290-359-371-315-254-703-417-1110-467-123-15-392-12-522 5-455 60-872 259-1202 575-372 356-598 810-657 1319-15 137-7 475 16 596 84 456 279 837 590 1150 371 375 832 590 1365 639 86 8 386-4 482-19z"/><path d="M2051 4443l1-798 119 360 119 360v875h-240l1-797zm621 780c-12-23-9-15-321-999-144-452-261-829-261-838 0-14 14-16 99-16 67 0 102 4 109 13 6 7 65 186 132 397 393 1240 457 1446 453 1453-2 4-49 7-103 7-84 0-101-3-108-17zm553 5c-3-7-6-287-8-622l-2-608-145 447c-80 246-149 447-155 447-5 0-31-64-57-142l-47-143 190-601c105-331 195-609 201-618 7-16 25-18 127-18 88 0 121 4 130 14 8 10 10 261 9 932l-3 919-118 3c-88 2-119-1-122-10zm515-93v-105h180V3580h-181l3-102 3-103h600l3 103 3 102h-181v1449l88 3 87 3v200l-302 3-303 2v-105zm2979-529c-75-20-144-80-174-153-22-51-19-149 6-203 70-154 247-202 389-104l50 34v-40c0-38 2-40 30-40h30v500h-30c-28 0-30-3-30-36v-35l-43 31c-44 31-123 61-161 59-12 0-42-6-67-13zm173-86c62-42 83-84 83-165s-21-123-83-166c-30-20-48-24-108-24-65 0-76 3-111 31-158 125-71 363 129 351 38-2 67-11 90-27zm1185 86c-187-70-234-299-90-438 51-49 99-68 176-68 179 0 298 166 245 342-15 50-79 123-131 150-52 26-149 33-200 14zm166-70c43-17 93-76 108-125 47-156-118-300-266-232-147 66-157 277-17 351 44 23 128 26 175 6zm940 70c-89-28-166-122-179-218-14-101 53-220 150-268 83-40 236-16 286 45 13 16 16 0 20-166l5-184 33-3 32-3v801h-35c-33 0-35-2-35-35v-35l-47 30c-80 51-148 61-230 36zm160-69c45-19 105-89 113-132 17-91-26-182-106-222-83-43-182-19-244 60-42 52-48 136-16 203 43 89 158 130 253 91zm896 69c-75-20-144-80-174-153-22-51-19-149 6-203 70-154 247-202 389-104l50 34v-40c0-38 2-40 30-40h30v500h-30c-28 0-30-3-30-36v-35l-43 31c-44 31-123 61-161 59-12 0-42-6-67-13zm173-86c62-42 83-84 83-165s-21-123-83-166c-30-20-48-24-108-24-65 0-76 3-111 31-158 125-71 363 129 351 38-2 67-11 90-27zm-4612-310v-400h67l129 305c71 168 132 305 135 305 4 0 64-137 135-305l128-305h66v800h-60v-301c0-227-3-300-12-297-6 2-57 113-112 246l-101 243-44-3-44-3-99-235c-54-129-103-239-108-244-7-7-10 94-10 292v302h-70v-400zm1640 0v-400h60v472l71-63c135-121 134-120 181-117l43 3-118 105c-64 57-116 108-115 112 2 4 61 69 133 145l130 138-40 3c-40 4-41 2-162-125l-122-128-1 128v127h-60v-400zm1430 0v-400h70v800h-70v-400zm720 363c1-34 16-56 154-218l153-180-153-3-154-3v-59h390v33c0 28-23 60-151 213l-151 179 151 3 151 3v69h-390v-37zm-2480-223v-250h35c34 0 35 1 35 42v41l23-20c29-27 93-58 135-66 31-6 32-5 32 27 0 30-3 34-34 40-50 9-110 58-135 108-18 39-21 62-21 186v142h-70v-250zm3520 0v-250h35c33 0 35 2 35 32 0 29 1 30 18 16 89-79 241-67 317 24 50 59 55 84 55 263v165h-60v-153c0-139-2-157-22-197-32-61-66-83-135-88-48-3-64 0-92 20-72 49-76 61-79 249l-3 169h-69v-250z"/></svg>